<svg width="2000" height="2000" viewBox="0 0 2000 2000" fill="none" xmlns="http://www.w3.org/2000/svg">
<path d="M1000 2000C1552.28 2000 2000 1552.28 2000 1000C2000 447.715 1552.28 0 1000 0C447.715 0 0 447.715 0 1000C0 1552.28 447.715 2000 1000 2000Z" fill="#2E3337"/>
<path d="M880.395 1449.9C1062.84 1449.9 1210.69 1302.05 1210.69 1119.61C1210.69 937.166 1062.84 789.316 880.395 789.316C697.955 789.316 550.105 937.166 550.105 1119.61C550.105 1302.05 697.955 1449.9 880.395 1449.9ZM880.395 1570C631.657 1570 430 1368.34 430 1119.61C430 870.868 631.657 669.211 880.395 669.211C1129.13 669.211 1330.79 870.868 1330.79 1119.61C1330.79 1368.34 1129.13 1570 880.395 1570Z" fill="#FBCC5C"/>
<path d="M1120.61 1209.69C1303.05 1209.69 1450.9 1061.84 1450.9 879.395C1450.9 696.955 1303.05 549.105 1120.61 549.105C938.166 549.105 790.316 696.955 790.316 879.395C790.316 1061.84 938.166 1209.69 1120.61 1209.69ZM1120.61 1329.79C871.868 1329.79 670.211 1128.13 670.211 879.395C670.211 630.657 871.868 429 1120.61 429C1369.34 429 1571 630.657 1571 879.395C1571 1128.13 1369.34 1329.79 1120.61 1329.79Z" fill="#35D07F"/>
<path d="M1135.5 1329.79C1166.73 1291.96 1189.07 1247.64 1200.96 1199.96C1248.52 1188.07 1292.84 1165.73 1330.79 1134.5C1329.11 1189.63 1317.22 1243.92 1295.72 1294.84C1244.92 1316.22 1190.63 1328.11 1135.5 1329.79ZM800.045 799.045C752.483 810.935 708.164 833.275 670.211 864.502C671.892 809.374 683.783 755.086 705.282 704.282C756.086 682.903 810.494 671.013 865.502 669.211C834.275 707.044 811.935 751.363 800.045 799.045Z" fill="#5EA33B"/>
</svg>
