<svg width="285" height="68" viewBox="0 0 285 68" fill="none" xmlns="http://www.w3.org/2000/svg">
<path d="M0 0H55.7544V39.774C55.7544 55.0885 43.2624 67.5231 27.8772 67.5231C12.4919 67.5201 0 55.0885 0 39.774V0Z" fill="#F8EFF6"/>
<path d="M26.9287 6.58841C29.1807 7.89778 34.2037 5.73628 35.892 8.20954C35.9993 8.36393 35.9099 8.58068 35.7279 8.63115C35.1642 8.78851 35.0687 8.95775 34.9941 9.84254C36.2051 10.279 37.2939 10.7362 37.5623 12.102C37.6011 12.295 37.4997 12.491 37.3207 12.5741C36.402 13.0106 35.4475 13.8983 35.8055 15.2552C35.8204 15.3116 36.0292 15.3175 36.3811 15.3977C38.1082 15.7896 39.9933 16.7576 40.0082 19.112C39.9933 19.4238 39.701 19.4475 39.5697 19.1685C38.9046 17.0752 36.3543 16.7576 33.971 17.5681C34.1351 19.2932 37.2342 19.1625 37.3893 21.6922C37.3893 21.9119 37.2223 21.9891 37.0731 21.8436C36.2738 21.0984 35.6653 20.2908 34.0993 20.5253C34.0038 20.7213 33.7443 20.8965 33.6787 21.0984C33.3685 21.6328 33.8398 22.001 34.0068 22.571C34.0874 22.8472 33.9054 23.1263 33.6221 23.1856L33.1269 23.2866C32.4438 23.4261 31.8175 23.7616 31.3223 24.2486L35.4982 24.6791C35.6205 24.6939 35.6235 24.8691 35.5042 24.8899C34.1023 25.1334 33.5892 25.3264 33.2522 26.3358H36.1723C36.3692 26.3358 36.4736 26.5704 36.3394 26.7159C36.223 26.8406 36.1186 26.9564 36.0858 26.9861C34.8659 28.1262 33.1567 28.0045 32.8555 30.0324C32.8167 30.2877 32.942 30.5371 33.1538 30.6885C36.7033 33.2152 37.3804 36.7425 40.2289 39.5721C40.8881 40.2282 42.6718 41.4752 44.2736 41.1397C45.3683 40.9081 45.9798 40.1956 46.3795 38.6041C46.7046 36.9889 45.1476 34.9432 44.372 34.3613C41.5443 32.2443 39.5608 31.2497 39.0448 27.8055C38.8211 26.318 39.355 24.8157 40.4228 23.7498C40.7629 23.4113 41.1387 23.1084 41.5473 22.859C43.7278 21.5319 46.3407 20.6946 47.4205 18.3015C47.9961 17.0248 48.1721 15.8342 47.9902 14.8692C47.5129 12.3217 43.8888 12.1941 43.173 14.6851L43.0894 15.0147C43.0358 15.2255 42.7494 15.2611 42.645 15.0711L41.8665 13.643C41.5652 12.7404 43.9187 11.4548 43.4921 10.2731C43.3251 9.80988 43.0626 9.4328 42.815 9.00822C42.2423 8.02842 42.4153 6.78734 43.2207 5.98569C43.51 5.69769 43.862 5.47204 44.2557 5.36218C45.586 4.99104 47.334 5.62643 48.5092 6.15196C49.2459 6.48153 49.8902 6.67155 50.5703 6.38652L50.6061 6.37167C50.6061 6.37167 50.4062 7.25052 50.1437 7.37819C49.2668 7.9542 47.2176 7.25943 46.1528 6.95658C45.762 6.84673 45.3474 7.02784 45.1655 7.39007C45.067 7.58603 45.0521 7.81168 45.1148 8.01952C45.7561 10.1543 47.5875 11.0807 48.5122 12.8799C49.0341 13.8953 49.061 15.7896 48.8432 17.2861C48.6911 18.3371 48.3123 19.3496 47.668 20.1958C47.3996 20.5461 47.1013 20.8608 46.7672 21.1251C44.2199 23.1352 39.9426 24.1417 40.226 28.2865C40.226 28.9635 40.8702 29.6375 41.3147 30.2402C43.692 33.4528 47.4652 32.9005 47.4473 38.7734C47.4473 40.2579 46.0722 42.1759 43.9306 42.1759C42.3557 42.1759 40.9001 41.7246 39.2416 41.11C38.7704 40.9349 38.2424 41.211 38.138 41.7009C37.6727 43.8921 36.1634 46.5524 36.5154 47.8172C36.7719 48.7317 37.4579 49.2454 37.7443 50.2756C37.8069 50.4983 37.786 50.7358 37.6965 50.9496C37.0165 52.55 34.9971 56.6503 34.2037 58.2833C34.147 58.3991 34.1082 58.5238 34.0874 58.6514L33.977 59.3165C33.9323 59.5837 33.7354 59.8034 33.4729 59.8777L32.3752 60.1894C31.8562 60.5309 31.3104 61.3147 30.854 61.8788C30.7168 62.0481 30.511 62.1431 30.2933 62.1431H28.4499C28.3336 61.8135 28.3037 61.7749 28.2321 61.2761C30.2217 60.2755 32.4856 59.4768 33.464 57.5855C33.9651 56.6176 33.8607 55.7774 34.3349 54.7649C34.6899 54.0078 35.5847 51.683 34.7704 50.4241C34.1828 49.0049 32.936 48.8445 31.719 48.0369C30.1024 46.9651 29.7474 43.1023 27.3582 42.9449C26.18 42.8291 25.6103 43.3131 25.315 44.5275L25.2523 44.7383C24.9809 45.7953 26.1144 47.4016 25.831 48.0399C25.1658 48.9158 21.664 50.9377 20.5992 51.5137C19.3971 51.4811 18.5679 51.0446 18.0847 52.3391C17.9862 52.7014 18.0012 52.8855 18.0012 53.3872L13.8223 53.1141L13.4077 52.8172C15.4926 52.645 18.7111 50.0975 20.3844 49.1266C21.5596 48.4437 22.8184 48.6693 23.0003 46.9562C21.9384 45.8279 20.8139 43.0756 20.9392 41.1249C20.9392 40.0649 21.6163 39.3048 22.3083 38.8417C23.5134 38.0341 25.995 38.7348 26.2724 36.9741C24.1845 36.603 21.5626 35.8132 20.0145 34.5602C18.8065 33.5834 19.2569 33.1083 18.204 32.85C17.0467 32.568 15.436 33.2687 14.7141 33.5003C11.8148 34.4355 11.2064 34.9046 9.91779 37.6243C9.34509 38.8357 9.18999 39.1653 9.4823 40.2282C9.74777 41.1902 10.5352 42.078 10.7917 43.0489C10.3801 43.4438 10.2638 43.6219 10.1385 44.3523C10.6128 44.8006 11.0095 45.3944 11.2272 46.0892L8.61133 48.0429V34.8037C11.0274 33.046 13.4494 30.9498 16.2413 29.5959C16.4919 27.1998 16.2473 23.5271 16.2413 20.4808C13.6135 20.1572 5.3213 17.9957 4.46822 16.14L4.68597 13.5361C7.06624 17.0515 13.5449 17.295 17.333 19.3971C18.723 20.169 19.3762 22.2504 21.0406 22.6512C23.0182 20.8222 31.6266 18.6073 27.3641 13.5361C27.1076 13.3609 26.9973 13.3668 26.4932 13.3193C25.3537 15.9618 24.1606 18.9725 20.8259 19.3971L20.6081 18.7468C21.0526 18.0788 21.318 11.7012 21.0436 11.1519C20.2979 9.52485 15.6686 9.31107 14.0669 9.31107V8.76476H20.3904C20.2681 6.82 20.4172 5.78676 21.0347 4.23096C21.1182 3.94592 21.3866 3.92811 21.491 4.23986C21.7147 4.88119 22.016 5.00292 22.3531 5.51063L22.5708 5.29389C23.0361 4.90494 23.3314 4.1597 23.6148 3.78262C23.7251 3.63714 23.9488 3.65792 24.0234 3.82419C24.3068 4.4477 23.9667 5.78676 25.1569 5.9174C26.2426 4.31706 28.7482 4.4477 30.0218 5.09793L29.9771 5.29686C28.6975 5.38296 27.3791 5.65612 26.9287 6.59732" fill="#ED1579"/>
<path d="M43.9544 46.8345V50.3083H40.2289L42.0723 49.851C42.7434 49.6848 43.2774 49.1741 43.4712 48.509L43.9574 46.8345H43.9544Z" fill="#ED1579"/>
<path d="M43.9544 53.7821V50.3083H47.68L45.8366 50.7655C45.1655 50.9318 44.6315 51.4425 44.4377 52.1076L43.9515 53.7821H43.9544Z" fill="#ED1579"/>
<path d="M47.4085 23.5301V27.0039H43.683L45.5264 26.5466C46.1975 26.3804 46.7314 25.8697 46.9253 25.2046L47.4115 23.5301H47.4085Z" fill="#ED1579"/>
<path d="M47.4085 30.4777V27.0039L51.134 27.0039L49.2907 27.4611C48.6195 27.6274 48.0856 28.1381 47.8917 28.8032L47.4055 30.4777H47.4085Z" fill="#ED1579"/>
<path d="M26.69 50.3083V53.7821H22.9645L24.8079 53.3249C25.479 53.1586 26.0129 52.6479 26.2068 51.9829L26.693 50.3083H26.69Z" fill="#ED1579"/>
<path d="M26.69 57.256V53.7821L30.4156 53.7821L28.5722 54.2394C27.9011 54.4056 27.3671 54.9163 27.1733 55.5814L26.6871 57.256H26.69Z" fill="#ED1579"/>
<path d="M16.3308 36.3922V39.866H12.6053L14.4487 39.4087C15.1198 39.2425 15.6537 38.7318 15.8476 38.0667L16.3338 36.3922H16.3308Z" fill="#ED1579"/>
<path d="M16.3308 43.3398V39.866H20.0563L18.2129 40.3232C17.5418 40.4895 17.0079 41.0002 16.814 41.6653L16.3278 43.3398H16.3308Z" fill="#ED1579"/>
<path d="M7.74035 22.7284V26.2022H4.01484L5.85821 25.745C6.52934 25.5787 7.06326 25.068 7.25714 24.403L7.74333 22.7284H7.74035Z" fill="#ED1579"/>
<path d="M7.74035 29.6761V26.2022H11.4659L9.62249 26.6595C8.95136 26.8257 8.41744 27.3364 8.22356 28.0015L7.73737 29.6761H7.74035Z" fill="#ED1579"/>
<path d="M8.19672 5.29092V8.76476H4.47121L6.31457 8.30752C6.9857 8.14125 7.51962 7.63057 7.7135 6.96549L8.1997 5.29092H8.19672Z" fill="#ED1579"/>
<path d="M8.19672 12.2386L8.19672 8.76476L11.9222 8.76476L10.0789 9.222C9.40773 9.38827 8.87381 9.89895 8.67993 10.564L8.19374 12.2386H8.19672Z" fill="#ED1579"/>
<path d="M88.9438 5.56585H81.0468V6.51843C83.3501 6.68266 84.041 7.10968 84.2056 8.35789C84.3701 9.37617 84.4688 10.7558 84.4688 13.6464V16.2742C84.4688 21.7269 82.9552 25.5044 78.3815 25.5044C74.4001 25.5044 72.36 22.5152 72.36 17.2596V9.86888C72.36 6.87975 72.6233 6.68266 75.1898 6.51843V5.56585H66.4044V6.51843C68.9709 6.74836 69.267 6.9126 69.267 9.86888V17.9822C69.267 21.8254 70.1884 24.289 72.1297 25.8C73.6104 26.9168 75.5189 27.3767 77.4931 27.3767C79.6648 27.3767 81.9023 26.654 83.4159 25.0773C85.2914 23.1065 85.8837 20.2816 85.8837 16.5041V13.6464C85.8837 10.7558 85.9824 9.37617 86.0811 8.45644C86.2127 7.14253 87.0024 6.64982 88.9438 6.51843V5.56585Z" fill="#F8EFF6"/>
<path d="M113.897 5.56585H106.098V6.51843C108.402 6.64982 109.159 7.07684 109.323 8.55498C109.422 9.50756 109.553 10.9857 109.553 14.0077V21.6612H109.455L95.931 5.56585H90.8638V6.51843C92.3774 6.64982 93.1013 6.9126 93.7594 7.73379C94.3516 8.48928 94.4174 8.75207 94.4174 11.0842V18.245C94.4174 21.2342 94.2858 22.8108 94.1871 23.8291C94.0226 25.4058 93.2 25.8328 91.3244 25.9642V26.9168H99.1886V25.9642C96.8853 25.8328 96.1614 25.4058 95.9968 23.7634C95.8981 22.8109 95.7994 21.2342 95.7994 18.245V10.1645H95.8652L109.817 27.2453H110.935V14.0077C110.935 10.9857 111.034 9.50756 111.133 8.48928C111.297 7.04399 112.054 6.61697 113.897 6.51843V5.56585Z" fill="#F8EFF6"/>
<path d="M125.484 26.9168V25.9642C122.819 25.7671 122.556 25.5701 122.556 22.778V9.70465C122.556 6.9126 122.819 6.71551 125.484 6.51843V5.56585H116.534V6.51843C119.2 6.71551 119.463 6.9126 119.463 9.70465V22.778C119.463 25.5701 119.2 25.7671 116.534 25.9642V26.9168H125.484Z" fill="#F8EFF6"/>
<path d="M141.038 10.4273C140.774 8.32505 140.577 7.01114 140.445 5.82863C139.327 5.50015 137.846 5.07313 136.234 5.07313C131.923 5.07313 129.324 7.76664 129.324 11.0186C129.324 14.6318 132.45 16.2742 134.819 17.5224C137.254 18.8363 138.998 20.0188 138.998 22.351C138.998 24.6832 137.583 26.1942 135.181 26.1942C131.824 26.1942 130.278 22.8109 129.719 20.7743L128.731 21.0371C128.929 22.7123 129.357 25.5044 129.62 26.227C129.982 26.3912 130.475 26.654 131.331 26.9168C132.153 27.1796 133.239 27.4095 134.555 27.4095C138.998 27.4095 141.992 24.6175 141.992 21.1028C141.992 17.4895 138.998 15.9128 136.266 14.5332C133.634 13.1865 132.121 12.0697 132.121 9.77034C132.121 7.96372 133.272 6.2228 135.674 6.2228C138.504 6.2228 139.458 8.52213 140.018 10.5915L141.038 10.4273Z" fill="#F8EFF6"/>
<path d="M175.372 5.56585H168.034V6.51843C170.634 6.81406 170.766 7.20823 170.305 9.17909C169.811 11.4456 168.067 17.6538 166.685 21.9568H166.62C164.645 16.4713 162.737 11.1828 160.894 5.86147H159.841C158.196 11.1499 156.353 16.5041 154.642 21.924H154.577C153.162 17.4567 151.911 13.1208 150.661 8.78491C150.167 7.10968 150.233 6.81406 152.668 6.51843V5.56585H144.343V6.51843C146.318 6.78121 146.844 7.07684 147.667 9.7375C149.476 15.6172 151.286 21.3327 153.03 27.2781H154.182C155.86 22.0554 157.637 16.8654 159.479 11.2156H159.545C161.256 16.0114 163.428 22.0554 165.205 27.2781H166.389C169.087 18.0808 171.062 11.9711 171.818 9.83604C172.773 7.14253 173.135 6.8469 175.372 6.51843V5.56585Z" fill="#F8EFF6"/>
<path d="M194.643 26.9168V25.9642C192.504 25.7343 192.076 25.4387 191.023 22.5809C188.917 16.8983 186.713 10.7229 184.673 5.07313L183.521 5.40161L176.71 22.5809C175.591 25.4387 175.13 25.6686 173.025 25.9642V26.9168H180.231V25.9642C177.763 25.7014 177.5 25.373 178.158 23.3693C178.618 22.0225 179.079 20.6758 179.573 19.2962H186.482C187.173 21.1685 187.799 22.8765 188.193 24.0919C188.654 25.4058 188.391 25.7014 186.318 25.9642V26.9168H194.643ZM185.989 17.818H180.099C181.053 15.1574 182.073 12.3982 183.093 9.6718H183.192L185.989 17.818Z" fill="#F8EFF6"/>
<path d="M197.418 5.56585V6.51843C199.82 6.71551 200.083 6.8469 200.083 9.7375V22.778C200.083 25.5044 199.82 25.7671 197.22 25.9642V26.9168H206.335V25.9642C203.439 25.7671 203.143 25.57 203.143 22.8109V17.7523L205.545 18.3764C205.907 18.4093 206.499 18.4093 206.993 18.3436C210.217 17.9494 213.442 15.88 213.442 11.6098C213.442 9.44187 212.587 7.89803 211.27 6.9126C209.954 5.96002 208.079 5.56585 205.71 5.56585H197.418ZM203.143 8.48928C203.143 7.63525 203.242 7.24108 203.472 7.04399C203.702 6.81406 204.328 6.64982 205.183 6.64982C207.783 6.64982 209.987 8.12796 209.987 11.7084C209.987 15.9457 207.388 17.0297 205.413 17.0297C204.426 17.0297 203.538 16.8326 203.143 16.6355V8.48928Z" fill="#F8EFF6"/>
<path d="M81.7377 42.3625C81.6061 40.7201 81.4416 38.5522 81.4087 37.501H66.7663V38.4536C69.267 38.6507 69.5303 38.8478 69.5303 41.7055V54.6146C69.5303 57.5052 69.2671 57.7023 66.6676 57.8994V58.852H75.8479V57.8994C72.8865 57.6695 72.6233 57.5052 72.6233 54.6146V48.8006H75.8808C78.8422 48.8006 79.0396 49.1619 79.4345 51.3956H80.4216V45.056H79.4345C79.0396 47.1582 78.8422 47.4539 75.8808 47.4539H72.6233V39.7347C72.6233 38.7821 72.722 38.6836 73.742 38.6836H76.0782C78.4473 38.6836 79.2041 38.9463 79.7635 39.8332C80.2242 40.4902 80.4545 41.2128 80.7506 42.4939L81.7377 42.3625Z" fill="#F8EFF6"/>
<path d="M96.1565 37.0083C89.115 37.0083 84.969 42.4939 84.969 48.3736C84.969 54.6803 89.6743 59.3447 95.7616 59.3447C101.816 59.3447 106.817 55.0088 106.817 47.9137C106.817 41.3442 101.783 37.0083 96.1565 37.0083ZM95.4326 38.2237C99.7101 38.2237 103.132 41.9355 103.132 48.8006C103.132 55.0745 100.006 58.1293 96.4526 58.1293C91.8789 58.1293 88.6543 53.5635 88.6543 47.5196C88.6543 41.4099 91.8789 38.2237 95.4326 38.2237Z" fill="#F8EFF6"/>
<path d="M132.161 37.501H124.264V38.4536C126.568 38.6179 127.259 39.0449 127.423 40.2931C127.588 41.3114 127.686 42.691 127.686 45.5816V48.2094C127.686 53.6621 126.173 57.4395 121.599 57.4395C117.618 57.4395 115.578 54.4504 115.578 49.1948V41.8041C115.578 38.8149 115.841 38.6179 118.407 38.4536V37.501H109.622V38.4536C112.189 38.6835 112.485 38.8478 112.485 41.8041V49.9174C112.485 53.7606 113.406 56.2242 115.347 57.7352C116.828 58.852 118.736 59.3119 120.711 59.3119C122.882 59.3119 125.12 58.5892 126.633 57.0125C128.509 55.0417 129.101 52.2168 129.101 48.4393V45.5816C129.101 42.691 129.2 41.3114 129.299 40.3916C129.43 39.0777 130.22 38.585 132.161 38.4536V37.501Z" fill="#F8EFF6"/>
<path d="M157.114 37.501H149.316V38.4536C151.619 38.585 152.376 39.012 152.541 40.4902C152.639 41.4427 152.771 42.9209 152.771 45.9429V53.5964H152.672L139.149 37.501H134.081V38.4536C135.595 38.585 136.319 38.8478 136.977 39.669C137.569 40.4245 137.635 40.6873 137.635 43.0194V50.1802C137.635 53.1693 137.503 54.746 137.405 55.7643C137.24 57.341 136.418 57.768 134.542 57.8994V58.852H142.406V57.8994C140.103 57.768 139.379 57.341 139.214 55.6986C139.116 54.746 139.017 53.1693 139.017 50.1802V42.0997H139.083L153.034 59.1805H154.153V45.9429C154.153 42.9209 154.252 41.4427 154.35 40.4245C154.515 38.9792 155.272 38.5522 157.114 38.4536V37.501Z" fill="#F8EFF6"/>
<path d="M159.884 37.501V38.4865C162.417 38.6836 162.681 38.8149 162.681 41.6398V54.7132C162.681 57.5052 162.384 57.7023 159.62 57.8994V58.852H167.518C171.565 58.852 174.888 57.998 177.356 56.1256C179.857 54.2205 181.403 51.297 181.403 47.3553C181.403 44.2676 180.219 41.8698 178.606 40.2931C176.566 38.3551 173.44 37.501 169.261 37.501H159.884ZM165.774 40.9172C165.774 39.7018 165.872 39.3077 166.201 39.0449C166.497 38.8149 167.32 38.6507 168.669 38.6507C170.874 38.6507 172.782 39.1106 174.23 40.1288C176.665 41.6398 177.882 44.4976 177.882 47.848C177.882 53.2022 174.987 57.6038 169.13 57.6038C166.761 57.6038 165.774 56.9468 165.774 54.4833V40.9172Z" fill="#F8EFF6"/>
<path d="M204.443 58.852V57.8994C202.304 57.6695 201.877 57.3738 200.824 54.5161C198.718 48.8335 196.513 42.6581 194.473 37.0083L193.322 37.3368L186.51 54.5161C185.392 57.3738 184.931 57.6038 182.825 57.8994V58.852H190.031V57.8994C187.563 57.6366 187.3 57.3082 187.958 55.3044C188.419 53.9577 188.88 52.6109 189.373 51.2313H196.283C196.974 53.1037 197.599 54.8117 197.994 56.0271C198.455 57.341 198.191 57.6366 196.118 57.8994V58.852H204.443ZM195.789 49.7532H189.9C190.854 47.0925 191.874 44.3333 192.894 41.607H192.993L195.789 49.7532Z" fill="#F8EFF6"/>
<path d="M223.098 42.5924C222.934 40.6544 222.769 38.158 222.769 36.6798H222.045C221.552 37.304 221.256 37.501 220.367 37.501H207.304C206.383 37.501 205.988 37.4353 205.495 36.6798H204.804C204.738 38.4536 204.573 40.6544 204.409 42.691H205.429C205.791 41.2128 206.12 40.2602 206.515 39.7018C206.975 38.9792 207.601 38.6836 210.332 38.6836H212.207V54.746C212.207 57.4067 211.944 57.7023 208.982 57.8994V58.852H218.656V57.8994C215.563 57.7023 215.3 57.3738 215.3 54.746V38.6836H217.472C219.874 38.6836 220.433 38.9135 220.993 39.669C221.42 40.2274 221.749 41.0814 222.111 42.691L223.098 42.5924Z" fill="#F8EFF6"/>
<path d="M234.75 58.852V57.8994C232.084 57.7023 231.821 57.5052 231.821 54.7132V41.6398C231.821 38.8478 232.084 38.6507 234.75 38.4536V37.501H225.8V38.4536C228.465 38.6507 228.728 38.8478 228.728 41.6398V54.7132C228.728 57.5052 228.465 57.7023 225.8 57.8994V58.852H234.75Z" fill="#F8EFF6"/>
<path d="M248.896 37.0083C241.855 37.0083 237.709 42.4939 237.709 48.3736C237.709 54.6803 242.414 59.3447 248.501 59.3447C254.556 59.3447 259.557 55.0088 259.557 47.9137C259.557 41.3442 254.523 37.0083 248.896 37.0083ZM248.172 38.2237C252.45 38.2237 255.872 41.9355 255.872 48.8006C255.872 55.0745 252.746 58.1293 249.192 58.1293C244.619 58.1293 241.394 53.5635 241.394 47.5196C241.394 41.4099 244.619 38.2237 248.172 38.2237Z" fill="#F8EFF6"/>
<path d="M285 37.501H277.202V38.4536C279.505 38.585 280.262 39.012 280.426 40.4902C280.525 41.4427 280.657 42.9209 280.657 45.9429V53.5964H280.558L267.034 37.501H261.967V38.4536C263.481 38.585 264.204 38.8478 264.863 39.669C265.455 40.4245 265.521 40.6873 265.521 43.0194V50.1802C265.521 53.1693 265.389 54.746 265.29 55.7643C265.126 57.341 264.303 57.768 262.428 57.8994V58.852H270.292V57.8994C267.988 57.768 267.265 57.341 267.1 55.6986C267.001 54.746 266.903 53.1693 266.903 50.1802V42.0997H266.968L280.92 59.1805H282.039V45.9429C282.039 42.9209 282.137 41.4427 282.236 40.4245C282.401 38.9792 283.157 38.5522 285 38.4536V37.501Z" fill="#F8EFF6"/>
</svg>
